{"title":"Stake Land 2010 DVDSCR XviD-SiC","uid":6433546,"size":735975424,"categoryP":"video","categoryS":"movies","magnet":"?xt=urn:btih:91c53adca0290bad00c84fe6a91f8e7bd37de739&amp;dn=Stake+Land+2010+DVDSCR+XviD-SiC&amp;tr=udp%3A%2F%2Ftracker.openbittorrent.com%3A80&amp;tr=udp%3A%2F%2Fopen.demonii.com%3A1337&amp;tr=udp%3A%2F%2Ftracker.coppersurfer.tk%3A6969&amp;tr=udp%3A%2F%2Fexodus.desync.com%3A6969","seeders":0,"leechers":0,"uploader":"HeroMaster","files":-1,"time":1306749184,"description":"Stake.Land.2010.DVDSCR.XviD-SiC\n\nIMDB Link &lt;a href=&quot;\nhttp://www.imdb.com/title/tt1464580/&quot; rel=&quot;nofollow&quot; target=&quot;_NEW&quot;&gt;\nhttp://www.imdb.com/title/tt1464580/&lt;/a&gt;\n\nDescription:\n\nMartin was a normal teenage boy before the country collapsed in an empty pit of economic and political disaster. A vampire epidemic has swept across what is left of the nation's abandoned towns and cities, and it's up to Mister, a death dealing, rogue vampire hunter, to get Martin safely north to Canada, the continent's New Eden\n\nGeneral\nComplete name: Stake.Land.2010.DVDSCR.XviD-SiC.avi\nFormat: AVI\nFormat/Info: Audio Video Interleave\nFile size: 702 MiB\nDuration: 1h 38mn\nOverall bit rate: 993 Kbps\nWriting application: VirtualDubMod 1.5.4.1 (build 2178/release)\nWriting library: VirtualDubMod build 2178/release\n\nVideo\nID: 0\nFormat: MPEG-4 Visual\nFormat profile: Advanced Simple@L5\nFormat settings, BVOP: 1\nFormat settings, QPel: No\nFormat settings, GMC: No warppoints\nFormat settings, Matrix: Custom\nCodec ID: XVID\nCodec ID/Hint: XviD\nDuration: 1h 38mn\nBit rate: 867 Kbps\nWidth: 672 pixels\nHeight: 288 pixels\nDisplay aspect ratio: 2.35:1\nFrame rate: 23.976 fps\nColor space: YUV\nChroma subsampling: 4:2:0\nBit depth: 8 bits\nScan type: Progressive\nCompression mode: Lossy\nBits/(Pixel*Frame): 0.187\nStream size: 613 MiB (87%)\nWriting library: XviD 63\n\nAudio\nID: 1\nFormat: MPEG Audio\nFormat version: Version 1\nFormat profile: Layer 3\nMode: Joint stereo\nCodec ID: 55\nCodec ID/Hint: MP3\nDuration: 1h 38mn\nBit rate mode: Variable\nBit rate: 114 Kbps\nNominal bit rate: 128 Kbps\nChannel(s): 2 channels\nSampling rate: 48.0 KHz\nCompression mode: Lossy\nStream size: 80.4 MiB (11%)\nAlignment: Aligned on interleaves\nInterleave, duration: 24 ms (0.58 video frame)\nInterleave, preload duration: 492 ms\nWriting library: LAME3.98r\n\n\nScreens:\n\n &lt;a href=&quot;\nhttp://www.postimg.com/image/38000/photo-37558.jpg&quot; rel=&quot;nofollow&quot; target=&quot;_NEW&quot;&gt;\nhttp://www.postimg.com/image/38000/photo-37558.jpg&lt;/a&gt;\n &lt;a href=&quot;\nhttp://www.postimg.com/image/38000/photo-37559.jpg&quot; rel=&quot;nofollow&quot; target=&quot;_NEW&quot;&gt;\nhttp://www.postimg.com/image/38000/photo-37559.jpg&lt;/a&gt;\n &lt;a href=&quot;\nhttp://www.postimg.com/image/38000/photo-37560.jpg&quot; rel=&quot;nofollow&quot; target=&quot;_NEW&quot;&gt;\nhttp://www.postimg.com/image/38000/photo-37560.jpg&lt;/a&gt;\n\n\nENJOY!","torrent":{"xt":"urn:btih:91c53adca0290bad00c84fe6a91f8e7bd37de739","amp;dn":"Stake+Land+2010+DVDSCR+XviD-SiC","amp;tr":["udp%3A%2F%2Ftracker.openbittorrent.com%3A80","udp%3A%2F%2Fopen.demonii.com%3A1337","udp%3A%2F%2Ftracker.coppersurfer.tk%3A6969","udp%3A%2F%2Fexodus.desync.com%3A6969"],"infoHash":"91c53adca0290bad00c84fe6a91f8e7bd37de739","infoHashBuffer":{"type":"Buffer","data":[145,197,58,220,160,41,11,173,0,200,79,230,169,31,142,123,211,125,231,57]},"announce":[],"urlList":[]}}